<svg id="_0394_credit_card_2" xmlns="http://www.w3.org/2000/svg" viewBox="0 0 500 500" data-imageid="credit-card-2-47" imageName="Credit Card 2" class="illustrations_image" style="width: 158px;"><defs><style>.cls-1_credit-card-2-47,.cls-2_credit-card-2-47,.cls-3_credit-card-2-47{fill:#fff;}.cls-4_credit-card-2-47{fill:#f4a28c;}.cls-2_credit-card-2-47,.cls-5_credit-card-2-47{opacity:.54;}.cls-6_credit-card-2-47{opacity:.03;}.cls-6_credit-card-2-47,.cls-7_credit-card-2-47,.cls-8_credit-card-2-47{fill:#000001;}.cls-5_credit-card-2-47,.cls-9_credit-card-2-47{fill:none;}.cls-10_credit-card-2-47,.cls-11_credit-card-2-47{fill:#e6e6e6;}.cls-11_credit-card-2-47,.cls-9_credit-card-2-47{opacity:.3;}.cls-12_credit-card-2-47{opacity:.58;}.cls-12_credit-card-2-47,.cls-13_credit-card-2-47,.cls-14_credit-card-2-47{fill:#68e1fd;}.cls-3_credit-card-2-47{opacity:.2;}.cls-7_credit-card-2-47{opacity:.05;}.cls-15_credit-card-2-47{fill:#24285b;}.cls-8_credit-card-2-47{opacity:.08;}.cls-13_credit-card-2-47{opacity:.73;}.cls-16_credit-card-2-47{fill:#ffd200;}</style></defs><path id="bg_credit-card-2-47" class="cls-11_credit-card-2-47" d="m104.47,118.93C56.98,138.95,21.76,189.71,14.81,251.12c-5.85,51.75,18.15,115.51,101.58,118.46,183.52,6.5,303.18,25.21,329.23-66.52,28-98.6,12.82-208.09-68.46-217.57-64.63-7.54-179.93-5.66-272.68,33.44Z"/><g id="screen_credit-card-2-47"><rect class="cls-10_credit-card-2-47" x="70.51" y="37.39" width="371.39" height="294.75"/><circle class="cls-16_credit-card-2-47" cx="100.93" cy="68.76" r="8.14"/><circle class="cls-14_credit-card-2-47 targetColor" cx="123.85" cy="68.76" r="8.14" style="fill: rgb(11, 207, 90);"/><circle class="cls-15_credit-card-2-47" cx="145.78" cy="68.76" r="8.14"/></g><ellipse id="sd_credit-card-2-47" class="cls-6_credit-card-2-47" cx="252.14" cy="436.08" rx="234.8" ry="26.53"/><g id="card_credit-card-2-47"><rect class="cls-16_credit-card-2-47" x="104.84" y="115.85" width="300.8" height="186.66" rx="9.98" ry="9.98"/><rect class="cls-2_credit-card-2-47" x="127.91" y="183.9" width="74.38" height="48.76" rx="7.5" ry="7.5"/><circle class="cls-2_credit-card-2-47" cx="339.5" cy="217.41" r="14.84"/><circle class="cls-2_credit-card-2-47" cx="362.57" cy="217.41" r="14.84"/><g class="cls-5_credit-card-2-47"><rect class="cls-1_credit-card-2-47" x="127.91" y="257.21" width="56.38" height="14.46"/><rect class="cls-1_credit-card-2-47" x="194" y="257.21" width="56.38" height="14.46"/><rect class="cls-1_credit-card-2-47" x="260.1" y="257.21" width="56.38" height="14.46"/><rect class="cls-1_credit-card-2-47" x="326.19" y="257.21" width="56.38" height="14.46"/></g></g><g id="plant_credit-card-2-47"><path class="cls-12_credit-card-2-47 targetColor" d="m311.43,411.2s-17.13-4.68-20.85-20.62c0,0,26.54-5.36,27.29,22.03l-6.44-1.41Z" style="fill: rgb(11, 207, 90);"/><path class="cls-13_credit-card-2-47 targetColor" d="m313.53,409.51s-11.97-18.92-1.44-36.6c0,0,20.18,12.81,11.21,36.64l-9.78-.04Z" style="fill: rgb(11, 207, 90);"/><path class="cls-14_credit-card-2-47 targetColor" d="m316.61,409.52s6.32-19.98,25.43-23.76c0,0,3.58,12.97-12.37,23.82l-13.06-.05Z" style="fill: rgb(11, 207, 90);"/><polygon class="cls-15_credit-card-2-47" points="304.19 409.07 307.66 432.82 329.53 432.91 332.75 409.19 304.19 409.07"/></g><g id="notes_credit-card-2-47"><polygon class="cls-1_credit-card-2-47" points="384.65 79.17 384.65 187.06 287.68 187.06 287.68 79.17 292.08 87.95 296.49 79.17 300.89 87.95 305.31 79.17 309.72 87.95 314.12 79.17 318.53 87.95 322.93 79.17 327.35 87.95 331.75 79.17 336.16 87.95 340.56 79.17 344.98 87.95 349.39 79.17 353.79 87.95 358.2 79.17 362.6 87.95 367.02 79.17 371.42 87.95 375.83 79.17 380.23 87.95 384.65 79.17"/><rect class="cls-10_credit-card-2-47" x="298.49" y="94.51" width="28.75" height="2.63"/><rect class="cls-10_credit-card-2-47" x="347.67" y="94.51" width="26.16" height="2.63"/><rect class="cls-10_credit-card-2-47" x="298.49" y="107.38" width="16.83" height="2.63"/><rect class="cls-10_credit-card-2-47" x="347.67" y="107.38" width="26.16" height="2.63"/><rect class="cls-10_credit-card-2-47" x="349.16" y="120.24" width="24.67" height="2.63"/><rect class="cls-10_credit-card-2-47" x="298.49" y="120.24" width="21.51" height="2.63"/><rect class="cls-10_credit-card-2-47" x="298.49" y="133.1" width="25.34" height="2.63"/><rect class="cls-10_credit-card-2-47" x="348.31" y="133.1" width="25.52" height="2.63"/><rect class="cls-10_credit-card-2-47" x="298.49" y="145.97" width="16.19" height="2.63"/><rect class="cls-10_credit-card-2-47" x="349.16" y="145.97" width="24.67" height="2.63"/><rect class="cls-10_credit-card-2-47" x="298.49" y="158.83" width="75.34" height="2.63"/><rect class="cls-10_credit-card-2-47" x="339.79" y="171.69" width="34.04" height="2.63"/><rect class="cls-1_credit-card-2-47" x="209.78" y="103.62" width="54" height="54"/><rect class="cls-10_credit-card-2-47" x="220.13" y="113.04" width="36.07" height="2.82"/><rect class="cls-10_credit-card-2-47" x="220.13" y="124.34" width="36.07" height="2.82"/><rect class="cls-10_credit-card-2-47" x="220.13" y="135.65" width="25.48" height="2.82"/></g><g id="coin_credit-card-2-47"><rect class="cls-16_credit-card-2-47" x="378.7" y="412.49" width="89.78" height="19.16"/><g class="cls-9_credit-card-2-47"><rect class="cls-2_credit-card-2-47" x="388.64" y="412.49" width="5.88" height="19.16"/><rect class="cls-2_credit-card-2-47" x="404.64" y="412.49" width="5.88" height="19.16"/><rect class="cls-2_credit-card-2-47" x="420.65" y="412.49" width="5.88" height="19.16"/><rect class="cls-2_credit-card-2-47" x="436.65" y="412.49" width="5.88" height="19.16"/><rect class="cls-2_credit-card-2-47" x="452.66" y="412.49" width="5.88" height="19.16"/></g><rect class="cls-16_credit-card-2-47" x="368.77" y="393.33" width="89.78" height="19.16"/><g class="cls-9_credit-card-2-47"><rect class="cls-2_credit-card-2-47" x="378.7" y="393.33" width="5.88" height="19.16"/><rect class="cls-2_credit-card-2-47" x="394.71" y="393.33" width="5.88" height="19.16"/><rect class="cls-2_credit-card-2-47" x="410.71" y="393.33" width="5.88" height="19.16"/><rect class="cls-2_credit-card-2-47" x="426.72" y="393.33" width="5.88" height="19.16"/><rect class="cls-2_credit-card-2-47" x="442.73" y="393.33" width="5.88" height="19.16"/></g><rect class="cls-16_credit-card-2-47" x="378.7" y="374.17" width="89.78" height="19.16"/><g class="cls-9_credit-card-2-47"><rect class="cls-2_credit-card-2-47" x="388.64" y="374.17" width="5.88" height="19.16"/><rect class="cls-2_credit-card-2-47" x="404.64" y="374.17" width="5.88" height="19.16"/><rect class="cls-2_credit-card-2-47" x="420.65" y="374.17" width="5.88" height="19.16"/><rect class="cls-2_credit-card-2-47" x="436.65" y="374.17" width="5.88" height="19.16"/><rect class="cls-2_credit-card-2-47" x="452.66" y="374.17" width="5.88" height="19.16"/></g></g><g id="person_credit-card-2-47"><path class="cls-7_credit-card-2-47" d="m149.2,221.11l-26.83.72-10.37,169.01,6.48.43c10.66.7,21.35,1.05,32.03,1.05,1.02,0,1.65,0,1.65,0,2.16-7.35,7.48-61.72,28.41-83.83,20.59-21.76,104.65-78.18,73.85-116.26-15.01-18.55-40.14,52.28-40.14,52.28l-39.62,4.7,2.72-1.42-28.18-26.68Z"/><polygon class="cls-4_credit-card-2-47" points="90.06 182.6 94.5 195.92 83.96 202.61 80.17 179.53 90.06 182.6"/><path class="cls-4_credit-card-2-47" d="m76.55,166.66c2.27-5.53,9.63-6.66,13.72-2.3,4.49,4.79,9.89,12.41,3.78,16.55-9.36,6.35-17.96-5.51-17.96-5.51,0,0-1.26-4.54.46-8.74Z"/><path class="cls-4_credit-card-2-47" d="m83.4,174.82s-2.4-2.01-3.49.84c-1.09,2.85,3.15,4.23,4.42,2.79,1.27-1.44-.93-3.63-.93-3.63Z"/><path class="cls-14_credit-card-2-47 targetColor" d="m62.21,209.33s-43.35,26.25-49.06,87.87c-.98,10.59,5.85,20.34,16.19,22.83l50.82,12.25-17.95-122.96Z" style="fill: rgb(11, 207, 90);"/><path class="cls-3_credit-card-2-47" d="m62.21,209.33s-43.35,26.25-49.06,87.87c-.98,10.59,5.85,20.34,16.19,22.83l50.82,12.25-17.95-122.96Z"/><path class="cls-15_credit-card-2-47" d="m84.72,171.37s4.98,14.25-3.7,13.36c-8.68-.89-3.92-7.01-8.23-13.36-4.31-6.34-2.04-10.62,4.53-16.19,3.01-2.55,5.04-3.74,6.25-5.09,2.29-2.56,6.51-2.07,7.82,1.11,2.24,5.47,2.26,12.79-6.67,20.17Z"/><path class="cls-14_credit-card-2-47 targetColor" d="m52.19,222.23c4.12-9.25,12.17-16.18,21.87-19.1,18.54-5.57,53.74-17.26,64.14.08,14.24,23.74-7.68,116.93-7.68,116.93l-62.29,4.84s-34.27-61.81-16.04-102.75Z" style="fill: rgb(11, 207, 90);"/><polygon class="cls-15_credit-card-2-47" points="130.53 320.15 122.33 427.24 109.38 427.24 97.82 344.04 69.18 324.98 130.53 320.15"/><polygon class="cls-15_credit-card-2-47" points="69.18 324.98 51.3 427.24 65.19 427.24 95.19 342.29 69.18 324.98"/><path class="cls-8_credit-card-2-47" d="m79.45,201.5s-29.14,93.85,55,100.07l-3.92,18.57-62.29,4.84s-21.95-34.47-21.02-82.88c0,0,.53-23.94,17.38-34.52,0,0,6.43-4.74,14.86-6.08Z"/><path class="cls-14_credit-card-2-47 targetColor" d="m121.97,427.24l8.11,6.35c1.43,1.12.64,3.42-1.18,3.42h-10.28c-3.03,0-5.49-2.46-5.49-5.49v-4.28h8.84Z" style="fill: rgb(11, 207, 90);"/><path class="cls-14_credit-card-2-47 targetColor" d="m52.29,427.24l-8.11,6.35c-1.43,1.12-.64,3.42,1.18,3.42h10.28c3.03,0,5.49-2.46,5.49-5.49v-4.28s-8.84,0-8.84,0Z" style="fill: rgb(11, 207, 90);"/><path class="cls-14_credit-card-2-47 targetColor" d="m249.39,193.58l-9.34-2.74-40.97,35.61h0c-6.14,5.34-14.67,6.99-22.35,4.3-8.54-2.99-19.23-9.06-26.85-21.42-14.73-23.89-39.75-15.24-39.75-15.24,0,0-18.85,18.57,18.5,50.44,22.3,19.02,45.12,20.22,59.9,18.09,1.81-.26,3.62-.3,5.45-.35,1.62-.05,3.32-.41,5.06-1.14,1.91-.81,3.85-1.77,5.8-2.88h0s0,0,0,0c15.15-8.65,31.48-27.19,44.53-64.66Z" style="fill: rgb(11, 207, 90);"/><path class="cls-3_credit-card-2-47" d="m249.39,193.58l-9.34-2.74-40.97,35.61h0c-6.14,5.34-14.67,6.99-22.35,4.3-8.54-2.99-19.23-9.06-26.85-21.42-14.73-23.89-39.75-15.24-39.75-15.24,0,0-18.85,18.57,18.5,50.44,22.3,19.02,45.12,20.22,59.9,18.09,1.81-.26,3.62-.3,5.45-.35,1.62-.05,3.32-.41,5.06-1.14,1.91-.81,3.85-1.77,5.8-2.88h0s0,0,0,0c15.15-8.65,31.48-27.19,44.53-64.66Z"/><path class="cls-4_credit-card-2-47" d="m240.04,190.84s5.2-14.85,9.34-16.02c4.14-1.17,0,8.01,0,8.01,0,0,11.33,5.56,0,10.75l-9.34-2.74Z"/></g></svg>