<svg version="1.1" id="Layer_1" xmlns="http://www.w3.org/2000/svg" xmlns:xlink="http://www.w3.org/1999/xlink" x="0px" y="0px" viewBox="0 0 500 500" style="width: 158px;" xml:space="preserve" data-imageid="money-1-37" imageName="Money 1" class="illustrations_image">
<style type="text/css">
	.st0_money-1-37{fill:#FFFFFF;}
	.st1_money-1-37{fill:#231F20;}
	.st2_money-1-37{fill:#D1D3D4;}
	.st3_money-1-37{fill:#68E1FD;}
</style>
<g id="Money_money-1-37">
	
		<rect x="186.6" y="89.1" transform="matrix(0.3727 -0.928 0.928 0.3727 -59.4544 358.6555)" class="st0_money-1-37" width="97.9" height="268.3"/>
	<path class="st1_money-1-37" d="M341.8,319.4c-0.1,0-0.2,0-0.3,0l-249-100c-0.2-0.1-0.3-0.2-0.4-0.4c-0.1-0.2-0.1-0.4,0-0.5l36.5-90.9&#10;&#9;&#9;c0.1-0.4,0.6-0.5,0.9-0.4c0,0,0,0,0,0l249,100c0.2,0.1,0.3,0.2,0.4,0.4c0.1,0.2,0.1,0.4,0,0.5L342.5,319&#10;&#9;&#9;C342.3,319.3,342.1,319.4,341.8,319.4z M93.7,218.4l247.7,99.5l36-89.6l-247.7-99.5L93.7,218.4z"/>
	
		<rect x="175.3" y="89.5" transform="matrix(0.19 -0.9818 0.9818 0.19 -37.9335 401.3408)" class="st0_money-1-37" width="97.9" height="268.3"/>
	<path class="st1_money-1-37" d="M346.6,297.9h-0.1l-263.4-51c-0.4-0.1-0.6-0.4-0.6-0.8c0,0,0,0,0,0l18.6-96.1c0-0.2,0.1-0.3,0.3-0.4&#10;&#9;&#9;c0.1-0.1,0.3-0.2,0.5-0.1l263.4,51c0.4,0.1,0.6,0.4,0.6,0.8c0,0,0,0,0,0l-18.6,96.2c0,0.2-0.1,0.3-0.3,0.5&#10;&#9;&#9;C346.9,297.9,346.8,298,346.6,297.9L346.6,297.9z M84,245.7l262.1,50.7l18.3-94.8l-262.1-50.7L84,245.7z"/>
	
		<rect x="186.6" y="102.9" transform="matrix(6.906001e-02 -0.9976 0.9976 6.906001e-02 -17.1973 455.635)" class="st0_money-1-37" width="97.9" height="268.3"/>
	<path class="st1_money-1-37" d="M366,295.8L366,295.8L98.3,277.3c-0.2,0-0.4-0.1-0.5-0.2c-0.1-0.1-0.2-0.3-0.2-0.5l6.8-97.7&#10;&#9;&#9;c0-0.4,0.4-0.7,0.7-0.7c0,0,0,0,0,0l267.7,18.5c0.4,0,0.7,0.4,0.7,0.7c0,0,0,0,0,0l-6.8,97.7C366.7,295.6,366.4,295.8,366,295.8&#10;&#9;&#9;L366,295.8z M99.1,276l266.3,18.4l6.6-96.3l-266.3-18.4L99.1,276z"/>
	<circle class="st0_money-1-37" cx="212.9" cy="205" r="34.3"/>
	<path class="st1_money-1-37" d="M212.9,240.1c-19.3,0-35-15.7-35-35s15.7-35,35-35s35,15.7,35,35l0,0C247.8,224.4,232.2,240,212.9,240.1z&#10;&#9;&#9; M212.9,171.4c-18.6,0-33.6,15.1-33.6,33.6c0,18.6,15.1,33.6,33.6,33.6c18.6,0,33.6-15.1,33.6-33.6c0,0,0,0,0,0&#10;&#9;&#9;C246.5,186.5,231.4,171.4,212.9,171.4z"/>
	<path class="st2_money-1-37" d="M212.9,230c-13.8,0-25-11.2-25-25s11.2-25,25-25s25,11.2,25,25l0,0C237.9,218.8,226.7,230,212.9,230z&#10;&#9;&#9; M212.9,181.4c-13,0-23.6,10.6-23.6,23.6c0,13,10.6,23.6,23.6,23.6s23.6-10.6,23.6-23.6c0,0,0,0,0,0&#10;&#9;&#9;C236.4,192,225.9,181.5,212.9,181.4L212.9,181.4z"/>
</g>
<g id="Credit_Cards_money-1-37">
	
		<rect x="297.8" y="166.2" transform="matrix(0.2406 -0.9706 0.9706 0.2406 69.5715 513.7044)" class="st0_money-1-37" width="130.5" height="92.4"/>
	<path class="st1_money-1-37" d="M392.2,287.5c-0.1,0-0.1,0-0.2,0l-89.7-22.2c-0.4-0.1-0.6-0.5-0.5-0.8c0,0,0,0,0,0l31.4-126.7&#10;&#9;&#9;c0-0.2,0.2-0.3,0.3-0.4c0.2-0.1,0.3-0.1,0.5-0.1l89.7,22.2c0.2,0,0.3,0.2,0.4,0.3c0.1,0.2,0.1,0.3,0.1,0.5L392.9,287&#10;&#9;&#9;C392.9,287.3,392.6,287.5,392.2,287.5L392.2,287.5z M303.4,264.1l88.4,21.9l31-125.3l-88.4-21.9L303.4,264.1z"/>
	
		<rect x="319.6" y="206.6" transform="matrix(0.2406 -0.9706 0.9706 0.2406 80.8436 538.8992)" class="st1_money-1-37" width="130.5" height="22.4"/>
	<path class="st1_money-1-37" d="M380,284.5c-0.1,0-0.1,0-0.2,0l-21.8-5.4c-0.2,0-0.3-0.2-0.4-0.3c-0.1-0.2-0.1-0.3-0.1-0.5L389,151.6&#10;&#9;&#9;c0.1-0.4,0.5-0.6,0.8-0.5c0,0,0,0,0,0l21.8,5.4c0.4,0.1,0.6,0.5,0.5,0.8c0,0,0,0,0,0L380.7,284C380.6,284.3,380.3,284.5,380,284.5&#10;&#9;&#9;L380,284.5z M359.1,277.9l20.4,5.1l31-125.3l-20.4-5.1L359.1,277.9L359.1,277.9z"/>
	<path class="st1_money-1-37" d="M358.2,182.9c-0.9,0-1.8-0.1-2.7-0.3c-6-1.5-9.7-7.6-8.2-13.6s7.6-9.7,13.6-8.2c6,1.5,9.7,7.6,8.2,13.6&#10;&#9;&#9;c0,0,0,0,0,0l0,0C367.8,179.3,363.3,182.8,358.2,182.9L358.2,182.9z M358.2,161.8c-5.4,0-9.8,4.4-9.8,9.8c0,5.4,4.4,9.8,9.8,9.8&#10;&#9;&#9;c1.8,0,3.5-0.5,5-1.4c2.2-1.3,3.8-3.5,4.5-6.1l0,0c1.3-5.3-1.9-10.6-7.2-11.9c0,0,0,0,0,0C359.8,161.9,359,161.8,358.2,161.8&#10;&#9;&#9;L358.2,161.8z"/>
	<path class="st1_money-1-37" d="M354.5,197.8c-0.9,0-1.8-0.1-2.7-0.3c-6-1.5-9.7-7.6-8.2-13.6s7.6-9.7,13.6-8.2c6,1.5,9.7,7.6,8.2,13.6&#10;&#9;&#9;c0,0,0,0,0,0l0,0C364.1,194.2,359.7,197.7,354.5,197.8L354.5,197.8z M354.5,176.7c-5.4,0-9.8,4.4-9.8,9.8c0,5.4,4.4,9.8,9.8,9.8&#10;&#9;&#9;c1.8,0,3.5-0.5,5-1.4c2.2-1.3,3.8-3.5,4.5-6.1l0,0c1.3-5.3-1.9-10.6-7.2-11.9c0,0,0,0,0,0C356.1,176.8,355.3,176.7,354.5,176.7&#10;&#9;&#9;L354.5,176.7z"/>
	
		<rect x="246.4" y="134.4" transform="matrix(0.9789 -0.2045 0.2045 0.9789 -34.6403 64.0677)" class="st0_money-1-37" width="92.4" height="130.5"/>
	<path class="st1_money-1-37" d="M260.8,273.7c-0.1,0-0.3,0-0.4-0.1c-0.2-0.1-0.3-0.3-0.3-0.4l-26.7-127.7c-0.1-0.4,0.2-0.7,0.5-0.8&#10;&#9;&#9;c0,0,0,0,0,0l90.5-18.9c0.4-0.1,0.7,0.2,0.8,0.5c0,0,0,0,0,0l26.7,127.7c0,0.2,0,0.4-0.1,0.5c-0.1,0.2-0.3,0.3-0.4,0.3l-90.5,18.9&#10;&#9;&#9;L260.8,273.7L260.8,273.7z M234.9,145.8l26.4,126.4l89.1-18.6L324,127.2L234.9,145.8L234.9,145.8z"/>
	
		<rect x="303.4" y="129.8" transform="matrix(0.9789 -0.2045 0.2045 0.9789 -33.2409 68.4549)" class="st1_money-1-37" width="22.4" height="130.5"/>
	<path class="st1_money-1-37" d="M317,261.9c-0.1,0-0.3,0-0.4-0.1c-0.2-0.1-0.3-0.3-0.3-0.4l-26.7-127.7c0-0.2,0-0.4,0.1-0.5&#10;&#9;&#9;c0.1-0.2,0.3-0.3,0.4-0.3l21.9-4.6c0.4-0.1,0.7,0.2,0.8,0.5c0,0,0,0,0,0l26.7,127.7c0.1,0.4-0.2,0.7-0.5,0.8c0,0,0,0,0,0l-21.9,4.6&#10;&#9;&#9;L317,261.9L317,261.9z M291.1,134l26.4,126.4l20.6-4.3l-26.4-126.4L291.1,134z"/>
	<path class="st1_money-1-37" d="M270.5,176.3c-6.2,0-11.2-5-11.2-11.2c0-6.2,5-11.2,11.2-11.2c5.3,0,9.9,3.7,11,8.9l0,0&#10;&#9;&#9;c1.2,6.1-2.6,12-8.7,13.2C272.1,176.2,271.3,176.2,270.5,176.3L270.5,176.3z M270.5,155.2c-0.7,0-1.3,0.1-2,0.2&#10;&#9;&#9;c-5.3,1.1-8.7,6.3-7.6,11.6c1.1,5.3,6.3,8.7,11.6,7.6c5.3-1.1,8.7-6.3,7.6-11.6l0,0C279.2,158.5,275.2,155.3,270.5,155.2&#10;&#9;&#9;L270.5,155.2z"/>
	<path class="st1_money-1-37" d="M273.7,191.3c-6.2,0-11.2-5-11.2-11.2c0-6.2,5-11.2,11.2-11.2c5.3,0,9.9,3.7,11,8.9l0,0&#10;&#9;&#9;c1.3,6.1-2.6,12-8.7,13.3c0,0,0,0,0,0C275.2,191.2,274.5,191.3,273.7,191.3z M273.7,170.3c-5.4,0-9.8,4.4-9.8,9.8s4.4,9.8,9.8,9.8&#10;&#9;&#9;c0.7,0,1.4-0.1,2-0.2c5.3-1.1,8.7-6.3,7.6-11.6l0,0C282.4,173.5,278.4,170.3,273.7,170.3L273.7,170.3z"/>
</g>
<g id="Smartphone_money-1-37">
	<path class="st0_money-1-37" d="M80.2,200.7h330c8.7,0,15.8,7.1,15.8,15.8v141.4c0,8.7-7.1,15.8-15.8,15.8h-330c-8.7,0-15.8-7.1-15.8-15.8&#10;&#9;&#9;V216.5C64.4,207.8,71.5,200.7,80.2,200.7z"/>
	<path class="st1_money-1-37" d="M403.9,374.4H86.5c-12.6,0-22.8-10.2-22.8-22.8V222.8c0-12.6,10.2-22.8,22.8-22.8h317.3&#10;&#9;&#9;c12.6,0,22.8,10.2,22.8,22.8v128.8C426.6,364.2,416.4,374.4,403.9,374.4L403.9,374.4z M86.5,201.4c-11.8,0-21.4,9.6-21.4,21.4&#10;&#9;&#9;v128.8c0,11.8,9.6,21.4,21.4,21.4h317.3c11.8,0,21.4-9.6,21.4-21.4V222.8c0-11.8-9.6-21.4-21.4-21.4L86.5,201.4z"/>
	<rect x="99.8" y="211.6" class="st3_money-1-37 targetColor" width="290.7" height="151.1" style="fill: rgb(11, 207, 90);"/>
	<path class="st1_money-1-37" d="M81,289.8c-0.4,0-0.7-0.3-0.7-0.7l0,0v-11.9c0-0.4,0.3-0.7,0.7-0.7c0.4,0,0.7,0.3,0.7,0.7v11.9&#10;&#9;&#9;C81.7,289.5,81.4,289.8,81,289.8C81,289.8,81,289.8,81,289.8z"/>
	<path class="st1_money-1-37" d="M81,297.9c-0.4,0-0.7-0.3-0.7-0.7l0,0v-4c0-0.4,0.3-0.7,0.7-0.7c0.4,0,0.7,0.3,0.7,0.7l0,0v4&#10;&#9;&#9;C81.7,297.5,81.4,297.9,81,297.9C81,297.9,81,297.9,81,297.9z"/>
	<path class="st0_money-1-37" d="M374.8,269.1h56.5c2.4,0,4.3,1.9,4.3,4.3V301c0,2.4-1.9,4.3-4.3,4.3h-56.5c-2.4,0-4.3-1.9-4.3-4.3v-27.6&#10;&#9;&#9;C370.5,271,372.4,269.1,374.8,269.1z"/>
	<path class="st1_money-1-37" d="M429.5,306h-53c-3.7,0-6.7-3-6.7-6.7v-24.1c0-3.7,3-6.7,6.7-6.7h53c3.7,0,6.7,3,6.7,6.7v24.1&#10;&#9;&#9;C436.3,303,433.3,306,429.5,306L429.5,306z M376.5,269.8c-2.9,0-5.3,2.4-5.3,5.3v24.1c0,2.9,2.4,5.3,5.3,5.3h53&#10;&#9;&#9;c2.9,0,5.3-2.4,5.3-5.3v-24.2c0-2.9-2.4-5.3-5.3-5.3L376.5,269.8z"/>
	<circle class="st1_money-1-37" cx="416.6" cy="287.2" r="9.3"/>
	<path class="st1_money-1-37" d="M416.6,297.2c-5.5,0-10-4.5-10-10s4.5-10,10-10s10,4.5,10,10C426.6,292.7,422.1,297.2,416.6,297.2z&#10;&#9;&#9; M416.6,278.5c-4.8,0-8.6,3.9-8.6,8.6s3.9,8.6,8.6,8.6s8.6-3.9,8.6-8.6C425.3,282.4,421.4,278.6,416.6,278.5z"/>
	<path class="st0_money-1-37" d="M284.2,325.3c-0.4,0-0.7-0.3-0.7-0.7c0-0.2,0.1-0.3,0.2-0.5l86.3-94.5c0.3-0.3,0.7-0.3,1,0&#10;&#9;&#9;c0.3,0.3,0.3,0.7,0,1c0,0,0,0,0,0L284.8,325C284.6,325.1,284.4,325.2,284.2,325.3L284.2,325.3z"/>
	<path class="st0_money-1-37" d="M189.4,335.4c-0.2,0-0.4-0.1-0.5-0.2c-0.3-0.3-0.3-0.7,0-1l46.9-45.6c0.3-0.3,0.7-0.3,1,0c0,0,0,0,0,0&#10;&#9;&#9;c0.3,0.3,0.3,0.7,0,1l-47,45.6C189.8,335.3,189.6,335.4,189.4,335.4L189.4,335.4z"/>
	<path class="st0_money-1-37" d="M165.4,287.9c-0.2,0-0.4-0.1-0.5-0.2c-0.3-0.3-0.2-0.7,0-1c0,0,0,0,0,0l58.8-53.4c0.2-0.3,0.7-0.4,1-0.2&#10;&#9;&#9;c0.3,0.2,0.4,0.7,0.2,1c-0.1,0.1-0.1,0.1-0.2,0.2l-58.8,53.5C165.8,287.8,165.6,287.9,165.4,287.9z"/>
</g>
</svg>